:SAMPLES-PER-SECOND 24
:FULLY-SPECIFIED
:DEGREES
358
root  3.07716 37.6391 33.9314 174.812 -77.3241 178.958
RightUpLeg  -5.57131 -8.2931 -21.9025
RightLeg  30.9735 8.29003 5.12703
RightFoot  -5.73785 -1.1 20.7944
RightToes  -1.74623e-010 0 -2.59999e-017
Spine  6.14985 -2.46827 -10.2584
Spine1  10.6248 -5.07273 4.75559
HEad  -20.5965 -39.9827 18.7611
LeftShoulder1  1.73966 -3.30154 -19.0421
LeftArm  19.8733 10.0679 -47.0717
LeftForeArm  87.5328 -80.045 -83.0016
LeftHand  -0.0413221 5.0869 8.48274
RightShoulder  2.56142 4.57482 25.6656
RightArm  -4.24004 -18.3589 30.3792
RightForeArm  15.153 60.622 19.0095
RightHand  -0.0453659 -3.77849 -1.97444
LeftUpLeg  -2.3522 10.5445 15.0348
LeftLeg  35.7686 2.03883 1.95871
LeftFoot  -13.2228 -0.208197 -17.4561
LeftToes  -6.27559e-011 -2.10356e-011 8.24929e-012
359
root  3.55819 36.1929 33.5186 171.709 -76.559 -177.364
RightUpLeg  -9.68642 -10.8424 -20.8347
RightLeg  38.6566 9.64711 7.93927
RightFoot  -15.5254 0.546393 18.0059
RightToes  -1.74623e-010 0 -2.59999e-017
Spine  6.81396 -2.12361 -9.23044
Spine1  11.4513 -4.78482 4.40419
HEad  -24.1474 -39.5005 20.3134
LeftShoulder1  1.87845 -3.19936 -21.6703
LeftArm  18.6561 3.66228 -43.0934
LeftForeArm  80.2722 -79.8029 -74.0047
LeftHand  -0.00204162 5.67049 8.25525
RightShoulder  2.87108 5.01956 27.7092
RightArm  -6.82951 -8.90985 26.1885
RightForeArm  14.3552 54.7953 14.9358
RightHand  -0.0903272 -4.01984 -5.6653
LeftUpLeg  -6.49907 11.3014 17.3873
LeftLeg  43.3895 1.5344 1.9439
LeftFoot  -20.0112 -1.31209 -18.7471
LeftToes  -6.27559e-011 -2.10356e-011 8.24929e-012
360
root  3.82479 35.7712 33.3589 170.668 -75.4366 -175.732
RightUpLeg  -12.3412 -12.5198 -20.0341
RightLeg  41.6312 10.581 9.66228
RightFoot  -16.6206 0.625836 15.7911
RightToes  -1.74623e-010 0 -2.59999e-017
Spine  6.78817 -1.92878 -7.42648
Spine1  12.626 -4.09152 2.84635
HEad  -26.773 -38.916 22.3208
LeftShoulder1  2.0542 -3.32783 -23.8314
LeftArm  16.2063 1.43602 -41.149
LeftForeArm  71.6974 -79.1067 -62.3596
LeftHand  0.0519602 6.26257 9.81841
RightShoulder  3.13929 5.38179 29.4133
RightArm  -11.3982 -4.13319 26.4775
RightForeArm  19.0658 48.3753 11.2327
RightHand  0.0651089 -5.96084 -15.9367
LeftUpLeg  -7.82626 12.4485 18.7013
LeftLeg  45.3694 0.233906 0.703019
LeftFoot  -21.4585 -1.641 -19.8206
LeftToes  -6.27559e-011 -2.10356e-011 8.24929e-012
361
root  3.72168 36.6747 33.3916 174.038 -75.2173 -178.6
RightUpLeg  -10.6227 -13.3818 -20.6643
RightLeg  36.6505 11.9214 9.14015
RightFoot  -12.4527 0.0824836 17.1602
RightToes  -1.74623e-010 0 -2.59999e-017
Spine  6.46524 -1.71656 -7.35259
Spine1  12.0307 -3.5739 2.28934
HEad  -25.633 -39.7699 22.6182
LeftShoulder1  2.08974 -3.47864 -23.6882
LeftArm  15.1398 6.29759 -42.6898
LeftForeArm  68.3851 -78.8539 -60.6371
LeftHand  0.1718 7.01383 13.6508
RightShoulder  3.16979 5.40145 29.6832
RightArm  -13.6173 -7.93043 29.843
RightForeArm  21.456 47.6002 10.7121
RightHand  0.728464 -8.51959 -26.7726
LeftUpLeg  -5.58634 13.6159 17.7173
LeftLeg  39.6103 0.108463 0.50248
LeftFoot  -17.8571 -1.03693 -19.9062
LeftToes  -6.27559e-011 -2.10356e-011 8.24929e-012
362
root  3.46754 38.185 33.5463 177.275 -75.9554 179.458
RightUpLeg  -7.68333 -13.7216 -20.6535
RightLeg  27.5463 12.0058 6.52976
RightFoot  -3.83991 -1.28037 18.9515
RightToes  -1.74623e-010 0 -2.59999e-017
Spine  5.51316 -1.81705 -8.30866
Spine1  10.4078 -3.84092 4.05675
HEad  -22.3299 -41.3316 21.2978
LeftShoulder1  2.03938 -3.43084 -23.14
LeftArm  15.081 13.6905 -43.8567
LeftForeArm  76.5955 -79.6041 -71.2602
LeftHand  0.108198 6.43589 13.7594
RightShoulder  3.23253 5.43151 30.2761
RightArm  -11.0286 -15.4926 30.6386
RightForeArm  18.2835 50.9782 12.4635
RightHand  0.426955 -7.30041 -25.5462
LeftUpLeg  -2.90087 14.823 16.6643
LeftLeg  30.5668 -1.28737 -0.424643
LeftFoot  -9.85814 0.303832 -18.7648
LeftToes  -6.27559e-011 -2.10356e-011 8.24929e-012
